<svg xmlns="http://www.w3.org/2000/svg" width="59" height="65" viewBox="auto">
  <g id="Group_5717" data-name="Group 5717" transform="translate(-223.051 -340.449)">
    <g id="Group_5712" data-name="Group 5712" transform="translate(223.051 340.449)">
      
      <g id="Group_5710" data-name="Group 5710" transform="translate(0 6.864)">
        <path id="Path_129" data-name="Path 129" d="M280.947,375.984a27.6,27.6,0,1,1-27.6-27.6A27.6,27.6,0,0,1,280.947,375.984Z" transform="translate(-224.601 -347.24)" fill="#1a1818"/>
        <path id="Path_130" data-name="Path 130" d="M253.493,404.879a28.746,28.746,0,1,1,28.747-28.748A28.779,28.779,0,0,1,253.493,404.879Zm0-55.2a26.454,26.454,0,1,0,26.454,26.452A26.482,26.482,0,0,0,253.493,349.679Z" transform="translate(-224.747 -347.386)" fill="#fff"/>
      </g>
      <path id="Path_131" data-name="Path 131" d="M274.8,375.31a22.174,22.174,0,1,1-22.174-22.176A22.175,22.175,0,0,1,274.8,375.31Z" transform="translate(-223.912 -339.681)" fill="#fff"/>
      <rect id="Rectangle_76" data-name="Rectangle 76" width="22.325" height="4.131" transform="translate(17.908 44.979)" fill="#1a1818"/>
      <path id="Path_132" data-name="Path 132" d="M242.5,386.52v4.78a21.821,21.821,0,0,0,17.02-.081v-4.7Z" transform="translate(-222.15 -334.795)" fill="#1a1818"/>
      <path id="Path_133" data-name="Path 133" d="M263.206,384.165s-4.1-3.124-4.1-8.165,4.089-6.618,3.629-18.723c-.362-9.563-7.248-15.29-11.554-15.878a7.717,7.717,0,0,1-2.36,9.773c-2.838,2.206-2.843,4.306-2.843,4.306l-6.456-.589a4.744,4.744,0,0,1,.959,2.478c.763,4.488-4.017,7.074-1.96,16.616C241.08,385.87,254.516,384.31,263.206,384.165Z" transform="translate(-222.807 -341.398)" fill="#1a1818"/>
      <g id="Group_5711" data-name="Group 5711" transform="translate(17.062 1.576)">
        <path id="Path_134" data-name="Path 134" d="M258.613,349.858s-.029,4.864-3.887,7.4c-2.369,1.556-5.249,2.37-7.887,7.507C243.314,371.627,249.93,377,249.93,377c-1.028-4.659-.751-7.169,2.284-10.245-2,4.4-2.164,11.142,5.588,13.825,0,0-4.183-4.167-.621-11.233A25.817,25.817,0,0,0,258.613,349.858Z" transform="translate(-238.727 -341.736)" fill="#ffae00"/>
        <path id="Path_135" data-name="Path 135" d="M253.847,354.988c2.686-2.819,4.4-9.283-2.5-12.215,0,0,2.835,3.781-1.306,8.044-3.515,3.613-4.445,7.373-3.245,10.175.776-2.336,4.713-3.553,7.052-6" transform="translate(-238.655 -342.773)" fill="#ffae00"/>
        <path id="Path_136" data-name="Path 136" d="M241.075,353.573a9.335,9.335,0,0,1,3.7,11.051c-1.84,5.436.245,11.346,7.319,15.572,0,0-11.645.347-12.426-11.665-.293-4.562,1.087-6.324,1.965-8.369a7.84,7.84,0,0,0-.561-6.588" transform="translate(-239.631 -341.192)" fill="#ffae00"/>
      </g>
    </g>

  </g>
</svg>
